<?xml version="1.0" encoding="utf-8"?>
<!DOCTYPE svg PUBLIC "-//W3C//DTD SVG 1.0//EN" "http://www.w3.org/TR/2001/REC-SVG-20010904/DTD/svg10.dtd">
<svg version="1.0" xmlns="http://www.w3.org/2000/svg" width="288px" height="288px" viewBox="0 0 288 288" preserveAspectRatio="xMidYMid meet">
 <g fill="#000000">
  <path d="M13.7 287.3 c-0.4 -0.3 -0.7 -1.4 -0.7 -2.4 0 -1.5 0.6 -1.7 3.5 -1.2 4.2 0.7 4.6 -0.7 0.9 -3.4 -1.7 -1.3 -2.3 -2.4 -1.8 -3.6 0.9 -2.5 2 -2.1 4.4 1.7 1.1 1.9 4.1 4.6 6.5 6.1 2.5 1.4 4.5 2.8 4.5 3 0 0.8 -16.6 0.6 -17.3 -0.2z"/>
  <path d="M33.9 285.1 c-2.6 -1.4 -7.3 -5 -10.4 -8 -5 -4.8 -5.5 -5.6 -4.1 -6.6 2.2 -1.7 2 -2.1 -1.4 -3.5 -2.4 -1 -3 -1.9 -3 -4.1 0 -1.6 0.5 -2.9 1 -2.9 0.7 0 0.9 -3.4 0.6 -10 -0.3 -5.5 -0.2 -10 0.3 -10 0.5 0 1.1 1.2 1.4 2.8 1 5.7 7.1 20.6 8.9 21.8 0.4 0.3 0.1 -1.7 -0.7 -4.3 -2 -6.5 -1.9 -9 0.5 -11 2.6 -2.3 2.5 -4.7 -0.5 -12.7 -2 -5.3 -2.5 -8.5 -2.5 -15.6 0 -10.2 1.6 -12.9 2.5 -4.3 1 9.5 3.4 18.5 5.9 22.3 1.3 1.9 2.7 5.3 3.1 7.5 0.6 3.3 0.8 3.6 1.7 2.2 0.5 -1 0.7 -2.5 0.4 -3.3 -0.8 -2.1 1.2 -1.7 6.3 1.2 l4.6 2.6 -6.6 -6.8 c-6.6 -6.8 -6.7 -7 -8.4 -15.7 -1.4 -7.4 -1.5 -9.9 -0.5 -15.7 0.6 -3.8 0.8 -7.4 0.4 -8.1 -0.4 -0.6 -0.3 -1 0.2 -0.7 5.1 2.3 6.4 3.4 6.4 5.1 0 1.9 0.1 2 2 0.2 1.1 -1 2 -3.1 2 -4.6 0 -3.4 1.9 -4.9 2.1 -1.7 0.1 1.3 0.5 0.5 0.8 -1.7 l0.7 -4 1.4 2.8 c1.9 3.9 5 3.6 5.1 -0.5 0 -1.8 1.4 -6 3 -9.3 2.9 -6 2.9 -6 2.4 -2 -0.2 2.2 -0.1 6.7 0.3 10 l0.8 6 1.2 -5.5 c1.3 -5.6 7.1 -19 8.3 -19 0.7 0 1.8 4.9 2 8.9 0.1 2.5 0.2 2.5 0.9 -0.4 0.4 -1.6 0.8 -4.7 0.9 -6.7 0.1 -2.5 0.6 -3.8 1.5 -3.8 0.7 0 1.9 -0.7 2.6 -1.5 0.8 -0.9 0.9 -1.5 0.2 -1.5 -0.6 0 -1.4 0.5 -1.7 1 -0.7 1.2 -3.5 1.4 -3.5 0.2 0 -0.4 2.8 -1.6 6.3 -2.6 6.8 -2.1 8.7 -3.2 8.7 -5 0 -0.6 -0.5 -0.4 -1 0.4 -0.8 1.3 -1 1.3 -1 -0.1 0 -1.9 4 -7.3 4.8 -6.5 0.2 0.3 -0.1 1.4 -0.9 2.3 -1.3 1.6 -1.2 1.7 0.4 0.4 0.9 -0.7 1.7 -2 1.7 -2.8 0 -0.8 0.5 -1.1 1 -0.8 0.6 0.3 1.3 -0.1 1.6 -0.9 0.4 -1 1.9 -1.6 4 -1.6 2.8 0 3.4 0.4 3.4 2.1 0 1.2 -0.5 1.9 -1.2 1.6 -1.9 -0.6 -4.8 1.1 -4.8 2.9 0 0.8 0.5 1.2 1 0.9 0.6 -0.4 0.8 -1.1 0.4 -1.6 -0.3 -0.6 0.3 -0.5 1.5 0.3 1.2 0.7 2.1 1.6 2.1 2 0 1.2 -4.4 1 -5.6 -0.2 -0.8 -0.8 -1.5 -0.6 -2.3 0.4 -1.4 1.7 -0.6 4 1.1 3 0.6 -0.4 1.4 -0.1 1.8 0.5 0.8 1.3 3.7 1.7 6 0.7 1.1 -0.5 1.6 0.1 1.7 2.4 0.1 1.7 -0.2 2.8 -0.6 2.5 -0.5 -0.3 -0.7 0.3 -0.5 1.2 0.2 1 -1.1 5.4 -2.9 9.8 -3.2 7.9 -3.3 8 -6.7 8 -3.3 0 -3.6 0.3 -4.9 4.5 -0.7 2.5 -2.4 7.4 -3.7 11 -2.6 7.2 -3 10.5 -1.3 11.6 0.7 0.4 0.9 2.1 0.6 4 -0.8 4.6 0.8 4.3 3.3 -0.6 2.5 -4.8 3.2 -5.1 1.9 -0.8 -0.5 2.1 -0.5 3.6 0.1 4.2 0.6 0.6 1 1.8 1 2.8 0 1 0.6 1.8 1.4 1.8 0.8 0 2.1 0.6 2.8 1.3 1.1 1.1 1.3 -0.6 1.2 -9.7 0 -6.1 -0.5 -13.5 -1.1 -16.4 -1 -5.2 -1 -5.3 1.1 -4.7 6.6 1.9 8.4 1.8 9.1 -0.6 0.4 -1.3 1.1 -2.6 1.6 -2.9 0.4 -0.3 1.9 -2.5 3.4 -5 2.2 -3.9 2.5 -4.1 1.9 -1.5 -0.8 3.6 -4.5 10.5 -5.6 10.5 -0.4 0 -0.8 0.5 -0.8 1.2 0 0.6 1.1 0.1 2.5 -1.2 1.8 -1.7 2.5 -1.9 2.5 -0.9 0 0.9 1.3 2.5 3 3.7 1.7 1.3 3 2.8 3 3.5 0.1 0.7 2.4 3.7 5.3 6.7 2.9 3.1 4.4 4.6 3.4 3.5 -1.8 -2.3 -2.2 -4.1 -0.8 -4.7 0.4 -0.1 -0.7 -4.6 -2.5 -9.8 -1.8 -5.2 -3.3 -8.7 -3.3 -7.7 -0.2 2.9 -3.1 2 -3.1 -0.9 0 -2 0.4 -2.5 1.6 -2 0.9 0.3 1.4 0.3 1.2 -0.1 -0.3 -0.5 -1 -2.3 -1.7 -4 -1.8 -4.5 -3 -4.1 -2.4 0.7 0.4 2.8 0.2 4 -0.7 4 -0.8 0 -1 -0.8 -0.7 -2.2 0.3 -1.1 -0.3 -6.4 -1.3 -11.7 -1.1 -5.3 -2 -12.4 -2 -15.7 0 -4.2 -0.5 -6.5 -1.5 -7.4 -1.2 -1 -1.5 -0.9 -1.5 0.4 0 1 -0.4 1.4 -1 1.1 -2 -1.3 -1 -6.2 2 -9.6 1.6 -1.9 3 -3.8 3 -4.2 0 -1.2 2.7 -3.7 4 -3.7 0.6 0 0.8 0.5 0.4 1.2 -0.4 0.7 -0.3 0.8 0.5 0.4 0.8 -0.6 0.9 -1.2 0.2 -2 -0.6 -0.7 -0.8 -1.6 -0.4 -1.9 1.1 -1.2 2.1 -0.8 2.6 1.1 0.4 1.6 0.5 1.6 0.6 0 0 -1 0.5 -1.8 1 -1.8 0.6 0 0.6 1.2 0 3.2 -0.5 1.8 -0.9 5.5 -0.9 8.1 0 3.8 -0.6 5.6 -2.5 7.9 -3.3 3.9 -3.4 9.7 -0.2 12.4 1.2 1 1.6 1.2 1 0.4 -1.6 -1.7 -1.7 -4 -0.3 -4 1.7 0 17.9 11.7 20.1 14.4 2.2 2.8 1.9 3.2 -1.3 1.5 -1.3 -0.7 -1.8 -0.7 -1.4 -0.1 1.4 2.3 12.2 5.4 19.1 5.5 8 0.1 13.6 -2 16.9 -6.5 2.3 -3.3 1.4 -4.8 -1.7 -2.8 -7.1 4.5 -7.2 4.5 -11 2.7 -1.9 -0.9 -4.3 -1.7 -5.2 -1.7 -1 0 -3.3 -0.9 -5.1 -2.1 -2.9 -1.7 -3.2 -2.3 -2.2 -3.9 1 -1.5 0.3 -2.7 -5.3 -8.1 -10 -9.9 -16.2 -20.2 -17.3 -28.5 -0.6 -5.2 -3.3 -17.7 -5.1 -23.8 -1.8 -5.9 -1.7 -5.6 -0.6 -5.6 0.5 0 1.5 1.5 2.1 3.4 0.6 1.9 2.9 5.1 5.1 7.1 2.2 2 4.5 5 5.1 6.6 1.2 3.5 2.4 3.7 3.2 0.5 0.8 -3.3 2.8 -3.8 7.7 -2.1 3.1 1.1 4.5 1.2 5.5 0.4 1.7 -1.4 1.8 -4.1 0.2 -5.7 -1 -1 -1 -1.5 0.2 -2.2 1.3 -0.8 1.2 -1 -0.2 -1 -1 0 -1.8 -0.7 -1.8 -1.5 0 -1.1 1.1 -1.5 4 -1.5 3.3 0 4 0.3 4 2 0 1.4 -0.5 1.8 -1.7 1.3 -1.6 -0.6 -1.6 -0.5 -0.4 1 1.5 1.8 6.6 2.3 7.6 0.7 0.8 -1.3 7.2 -1.3 8 0 0.3 0.5 0 1.9 -0.7 3 -1.1 1.7 -1.1 2.2 0.2 3 0.8 0.5 2.1 0.8 2.8 0.5 0.8 -0.3 2.9 -0.5 4.7 -0.5 4.9 0 10.1 -4.8 11.9 -11 0.8 -2.7 2.1 -5.9 3 -7.2 0.9 -1.3 1.3 -3.3 0.9 -4.6 -0.5 -1.9 -1.2 -2.2 -5.4 -2.2 -2.7 0 -4.9 -0.4 -4.9 -1 0 -0.5 -1.3 -0.7 -3 -0.3 -2.5 0.4 -3 0.2 -3.1 -1.3 0 -1.2 -0.3 -1.4 -0.6 -0.6 -0.3 0.7 0.3 2.3 1.3 3.4 1.9 2.1 1.9 2.1 -2 1.5 -4.8 -0.8 -5.6 -1.5 -3.3 -3.1 0.9 -0.7 1.7 -1.7 1.7 -2.2 0 -0.4 -0.5 -0.3 -1.2 0.4 -0.7 0.7 -2 1.2 -3 1.2 -1 0 -1.8 0.5 -1.8 1 0 0.6 -0.4 1 -1 1 -1.3 0 -1.3 -7.1 -0.1 -10.3 1 -2.7 6.8 -4.8 16.1 -6.1 l4.5 -0.6 -0.2 -4.8 c-0.3 -8.4 -2.3 -16.9 -4.6 -19 -4.2 -3.8 -20.8 -9.2 -28.4 -9.2 -5.2 0 -17.6 4.8 -22.1 8.6 -3.6 3.1 -3.7 3.3 -3.8 10.5 0 4.7 -0.7 8.8 -1.8 11.3 -0.9 2.1 -1.5 4 -1.2 4.3 0.2 0.2 0.7 -0.4 1 -1.4 1.2 -3.4 10.6 -6.8 12.1 -4.3 0.3 0.5 0 1 -0.9 1 -2 0 -7.6 4.9 -7.6 6.6 0 0.9 -0.4 1.3 -0.9 0.9 -1 -0.6 -1.6 0.9 -2.7 6.7 -0.6 3.9 -2.9 5.1 -3.7 2.1 -0.3 -1 -0.5 -0.3 -0.6 1.5 -0.1 2.8 -0.3 3.1 -1.5 2 -0.7 -0.8 -1.7 -3.3 -2.1 -5.7 -0.5 -2.8 -1.1 -4.1 -2 -3.8 -1 0.4 -1.3 -3.4 -1.4 -17.6 -0.1 -16.9 0 -18.7 2.3 -25.4 3.2 -9.2 7.3 -17.2 9.2 -18 0.8 -0.3 2.1 0.2 2.8 1.2 1.4 1.9 2.5 1.7 6.5 -1.2 2.3 -1.7 2.4 -1.7 1.6 0.7 -0.7 2.4 -0.6 2.3 2.7 -0.7 2.1 -2.1 4.4 -3.3 6.1 -3.3 3.3 0 3.5 1.5 0.5 4.1 -1.9 1.5 -1.3 1.4 3.2 -0.6 7.5 -3.4 8.8 -3.2 5.8 0.7 -5.3 7.1 -4.4 7 3.8 -0.5 1.7 -1.5 4.6 -3 6.4 -3.2 2.8 -0.4 3.1 -0.2 2.7 1.5 -0.4 1.7 0 2 2.8 2 1.9 0 4.5 -0.5 5.8 -1.1 1.9 -0.9 3.4 -0.7 7.3 1 2.7 1.2 6.5 2.3 8.4 2.5 1.9 0.2 4.3 0.7 5.3 1.1 1.2 0.5 1.7 0.3 1.7 -1 0 -0.9 0.5 -1.3 1 -1 0.6 0.3 1 1.4 1 2.4 0 1 0.7 2.4 1.5 3.1 0.8 0.7 1.5 2.4 1.5 3.9 0 1.4 1.3 6.4 3 11.1 1.6 4.7 3 10.3 3 12.5 0 5.3 -4.1 22.7 -7.5 31.7 -9.7 26 -13.2 34 -17.2 40.1 -4.3 6.5 -7.3 13.8 -7.3 17.8 0 0.9 2.2 3.9 4.9 6.6 2.6 2.6 8.2 8.5 12.4 12.9 4.2 4.5 7.8 7.7 8 7.1 0.2 -0.6 0.9 -0.7 1.6 -0.3 1 0.7 1 1 0.1 1.6 -0.8 0.5 -0.1 1.1 1.9 1.8 3.8 1.3 4.2 3.6 0.6 3 -1.7 -0.4 -2.9 0 -3.4 1.1 -0.9 1.4 -1.1 1.4 -2.8 -0.2 -2.5 -2.2 -4.6 -2.2 -3.9 0.1 0.3 0.9 1.2 4.5 2.1 8 0.8 3.4 3.6 12.3 6 19.7 2.5 7.5 4.5 14.4 4.5 15.5 0 2.3 1 2.5 2.9 0.8 1 -1.1 1.2 -0.9 0.9 0.7 -0.2 1.1 -1 1.9 -1.6 1.7 -0.7 -0.1 -1.2 0.4 -1.2 1.1 0 1.9 2.1 3.7 4.2 3.7 1.4 0 1.8 -0.8 1.9 -4.2 0 -3.6 0.2 -3.9 0.9 -2 0.5 1.2 0.7 2.9 0.4 3.7 -0.4 0.8 -0.1 1.5 0.6 1.5 0.8 0 1 -1.9 0.6 -6.2 -0.2 -3.5 -0.5 -9 -0.6 -12.3 -0.1 -3.3 -0.4 -5.2 -0.7 -4.2 -0.3 1 -1 1.6 -1.6 1.4 -1.6 -0.5 -2 -13.4 -0.5 -14.3 0.8 -0.5 0.9 -0.2 0.5 0.9 -0.3 1 -0.2 1.7 0.3 1.7 0.6 0 0.9 -1.7 0.9 -3.7 -0.1 -2.1 -0.3 -3 -0.6 -2 -0.8 2.9 -3.3 2 -3.3 -1.2 0 -3.4 1.6 -5 2.3 -2.4 0.4 1.4 0.5 1.3 0.6 -0.4 0.2 -3.8 1.8 -3.4 6.2 1.4 6.8 7.7 10.7 17.5 12.9 32.6 1.1 7.1 2 14.6 2 16.6 0 2 0.7 6.8 1.7 10.8 1.4 6.2 1.5 8.1 0.4 14 -1.1 6.2 -1.1 7.3 0.8 12.7 1.2 3.3 2.1 6.1 2.1 6.3 0 0.1 -2.6 0.3 -5.8 0.3 -5.3 0 -6 -0.2 -7 -2.5 -0.7 -1.4 -1.2 -3.5 -1.2 -4.6 0 -1.3 -0.4 -1.8 -1.2 -1.3 -0.6 0.4 -0.8 0.3 -0.5 -0.3 0.4 -0.6 0.4 -2.5 0.1 -4.3 -0.5 -2.3 -1 -2.8 -1.8 -2 -0.6 0.6 -1.2 1.5 -1.2 2.1 -0.1 0.5 -0.2 1.4 -0.3 2 -0.2 1.9 -1.9 0 -2.4 -2.8 -0.7 -3.5 1 -5.8 2.9 -4.2 1.1 0.9 1.4 0.8 1.4 -0.4 0 -2 -2.7 -12.3 -3.5 -13.7 -1.1 -1.8 -4.3 -1.1 -5 1 -0.8 2.5 0.3 10 1.7 11.7 0.5 0.7 1 3.2 1 5.7 0.1 2.6 0.5 4.3 1.1 3.9 0.5 -0.3 0.4 0.4 -0.2 1.5 -0.7 1.4 -0.8 2.3 -0.1 2.7 1.2 0.8 1.3 5.5 0.1 5.5 -0.7 0 -2.3 -7.9 -2.6 -12.6 0 -0.6 -0.5 -2.2 -1.2 -3.5 -2 -4.1 -6.3 -17.8 -6.3 -20 0 -1.2 -1.1 -5.8 -2.4 -10.3 -1.4 -4.4 -3.8 -14.4 -5.5 -22.1 -6.1 -27.4 -9.1 -37.8 -11.9 -40.7 -3.4 -3.7 -4.2 -3.5 -2.9 0.7 0.6 2 1.3 3.1 1.7 2.5 1.1 -1.7 2.7 0.9 4.1 6.5 0.6 2.8 2.2 8.6 3.4 13 1.3 4.4 3.7 15.2 5.5 24 1.7 8.8 3.8 18.5 4.6 21.5 1.6 6.2 1.8 13.6 0.5 14.5 -0.5 0.3 -1.2 -0.3 -1.4 -1.2 -0.3 -1 -0.5 0 -0.5 2.2 0 2.2 0.2 3.2 0.5 2.3 0.9 -3.6 3.3 -2 3.3 2.2 0 3.8 -1.3 5.4 -2.3 2.8 -0.3 -0.7 -0.6 0.1 -0.6 1.8 -0.1 1.8 0.6 3.7 1.6 4.5 0.9 0.8 2.5 3.2 3.5 5.4 1.8 3.9 1.9 3.9 1.3 0.8 -0.5 -2.5 -0.3 -3.3 0.8 -3.3 1.5 0 2.7 2.9 2.7 6.8 0 2.4 -1.5 3 -2.3 1 -0.4 -1 -0.6 -1 -0.6 0 -0.1 0.9 -13 1.2 -61 1.2 l-60.9 0 -0.6 -3.2 c-1.2 -6.1 -8 -11.2 -10.2 -7.7 -0.3 0.6 -1.9 0.9 -3.5 0.5 -1.5 -0.3 -3 -0.2 -3.3 0.3 -0.9 1.4 1.4 8 3.2 9 1.2 0.7 -3.9 1 -16.3 1 -17.6 -0.1 -18.1 -0.2 -22.6 -2.8z m165.1 -21.8 c0 -1.6 -0.3 -5.2 -0.6 -8 -0.6 -4.7 -0.9 -5.3 -3 -5.3 -2 0 -2.4 0.5 -2.4 2.9 0 1.7 -0.5 3.3 -1 3.6 -0.7 0.5 -1 -1.9 -0.8 -7.2 0.3 -7.7 0.3 -7.8 3.1 -8.1 1.5 -0.2 2.7 -0.9 2.7 -1.6 0 -0.8 0.3 -2.7 0.6 -4.4 0.6 -2.9 0.5 -3 -4.7 -4.5 -3 -0.9 -12.2 -1.9 -20.7 -2.3 -13.8 -0.6 -15.2 -0.5 -14.6 1 0.5 1.4 -0.3 1.6 -6.4 1.6 -3.8 0 -8.9 0.3 -11.4 0.6 -4.1 0.6 -4.4 0.9 -4 3 0.5 2.5 2.1 2.9 11.5 2.4 3.5 -0.1 3.7 0 3.7 2.9 0 2.8 -1.5 6.8 -3.1 8.1 -0.3 0.3 -0.9 2.2 -1.2 4.4 -0.3 2.1 -0.7 4 -0.9 4.1 -0.2 0.1 -2.6 0.5 -5.5 0.9 -4.4 0.6 -5.2 0.4 -5.6 -1.1 -0.3 -1 -0.5 0.5 -0.5 3.2 0 2.8 0.2 4.3 0.4 3.5 0.6 -2 20.4 -2.3 20.4 -0.3 0 0.7 0.1 1.4 0.3 1.4 0.2 0.2 28.6 1.5 37.5 1.7 6.1 0.2 6.2 0.2 6.2 -2.5z m-65.1 -10.1 c1.1 -2.2 -0.3 -4.2 -2.9 -4.2 -0.9 0 -2.1 -0.5 -2.7 -1.1 -0.7 -0.7 -1.2 -0.3 -1.5 1.5 -0.6 2.8 0 4 2.2 4.9 2.7 1 3.9 0.7 4.9 -1.1z m4.3 -1.6 c0.8 0.5 0.9 -0.1 0.3 -1.7 -0.4 -1.3 -0.9 -4.1 -1.2 -6.2 -0.3 -2.3 -1.2 -4.1 -2.4 -4.8 -1.3 -0.6 -1.9 -0.6 -1.9 0.1 0 0.5 0.7 1 1.5 1 1.2 0 1.5 1.5 1.6 7.3 0.1 3.9 0.3 6.4 0.6 5.4 0.2 -0.9 0.9 -1.4 1.5 -1.1z m78.4 -3 c-0.6 -5.7 -1 -6.3 -3 -4.7 -1.2 1 -1.6 0.8 -2.1 -0.9 -0.9 -2.8 -0.1 -3.4 2.6 -2 1.9 1.1 2.1 1 1.6 -0.5 -0.4 -0.9 -0.7 -2.1 -0.7 -2.7 0 -0.6 -0.6 -0.6 -1.5 0.2 -0.8 0.6 -1.9 0.9 -2.5 0.5 -1.8 -1.1 -4.4 0.3 -3.2 1.8 0.5 0.6 1.2 3.6 1.6 6.6 0.9 6.8 0.9 6.8 4.7 6.7 l3.1 -0.1 -0.6 -4.9z m-71.6 -2 c0 -1.5 -2.4 -1.6 -3.7 -0.1 -0.4 0.4 -0.3 0.5 0.4 0.1 0.6 -0.3 1.4 -0.2 1.8 0.4 0.9 1.4 1.5 1.2 1.5 -0.4z m53 -0.6 c0 -2.4 -2.6 -3.8 -4.2 -2.2 -1.6 1.6 -0.2 4.2 2.2 4.2 1.3 0 2 -0.7 2 -2z m-71.3 -4.6 c-1 -1 1.2 -4.4 2.8 -4.4 0.7 0 1.6 0.8 1.8 1.8 0.4 1.4 0.5 1.4 0.6 0.1 0 -0.9 -0.5 -2.2 -1.2 -2.8 -1.1 -0.8 -1.9 -0.5 -3.6 1.3 -2 2.1 -2.2 4.6 -0.4 4.6 0.4 0 0.3 -0.3 0 -0.6z m-12.2 -7.1 c-0.4 -1.6 -1.1 -5.4 -1.6 -8.7 -0.6 -3.2 -1.9 -7.6 -3 -9.7 -2 -4.1 -6.1 -7.5 -7.8 -6.5 -0.5 0.3 -1 3.4 -1 6.8 -0.3 11.2 -0.2 11.7 2.6 14.5 1.1 1.1 2.3 2.7 2.6 3.4 0.4 1.1 0.8 0.9 2.1 -0.6 1.4 -1.8 1.5 -1.8 1.6 -0.2 0 1.4 2.4 3.2 4.9 3.6 0.2 0.1 0 -1.1 -0.4 -2.6z m15.9 -7.8 c-0.8 -1.3 -2.1 -2.6 -2.9 -2.9 -0.8 -0.3 -0.5 0.8 0.8 2.8 1.2 1.9 2.5 3.2 2.9 2.9 0.4 -0.2 0.1 -1.5 -0.8 -2.8z m65.6 -3.2 c-0.1 -2.6 -0.1 -2.7 -1.2 -0.8 -0.6 1.1 -1.6 2.3 -2.2 2.7 -0.6 0.5 -0.1 0.8 1.2 0.8 1.7 0 2.2 -0.6 2.2 -2.7z m-117.9 -9.1 c1.3 -4.1 8.5 -19 10.1 -20.9 1.2 -1.4 0.7 -5.5 -0.7 -6 -1.2 -0.4 -12.5 27.4 -12.5 30.9 0 2 1.9 -0.4 3.1 -4z m-7.6 -13.4 c0.8 -2.9 1.5 -6.5 1.5 -8.2 -0.1 -2.3 -0.7 -1.2 -2.5 4.4 -2.7 8.1 -3 10.5 -1.5 9.5 0.5 -0.3 1.6 -2.9 2.5 -5.7z m118.9 -5.2 c-0.3 -1.5 -0.8 -2.5 -1.1 -2.3 -0.2 0.3 -0.1 1.7 0.3 3.1 0.3 1.5 0.8 2.5 1.1 2.3 0.2 -0.3 0.1 -1.7 -0.3 -3.1z m-107.8 -10.7 c1.3 -2.6 2.6 -6.6 3 -8.8 0.6 -3.7 1.4 -4.6 3.7 -4.2 0.5 0.1 0.5 -0.3 0.2 -0.9 -1.9 -3 -8.3 7.3 -12.2 19.5 -1.1 3.6 2.6 -0.4 5.3 -5.6z m8.4 1.1 c-0.8 -1.4 -0.8 -2.6 0 -4.1 0.6 -1.1 1 -2.8 0.7 -3.7 -0.2 -1.2 -0.9 -0.6 -2.2 2 -1.8 3.6 -1.8 3.8 0 5.8 2.3 2.5 2.9 2.6 1.5 0z m67.8 -40.6 c3.9 -1.1 2.4 -2.4 -3 -2.4 -2.9 -0.1 -7.7 -0.9 -10.6 -1.9 -4.6 -1.6 -5.4 -1.6 -5.9 -0.4 -0.3 0.8 0.1 2.6 0.8 4 1.3 2.5 1.6 2.5 8.9 1.9 4.1 -0.3 8.5 -0.9 9.8 -1.2z m-16.3 -8 c2.5 -1 5.1 -1.3 7.6 -0.9 2.6 0.5 4.9 0.1 7.4 -1 4.6 -2.2 5.3 -3.5 2 -3.5 -1.4 0 -2.3 0.4 -2 1 0.9 1.5 -3.5 2.2 -7.9 1.3 -4.3 -0.9 -5.8 -2.8 -2.9 -3.6 1 -0.3 -1.1 -0.5 -4.7 -0.4 -7 0.2 -7.9 1 -6.6 6.3 0.7 2.8 2 3 7.1 0.8z m13.5 -9.4 c0 -0.5 -1.5 -1 -3.2 -1 -2.5 0 -2.9 0.3 -1.8 1 2 1.3 5 1.3 5 0z m-4.4 -93.1 c2 -3.9 1.2 -3.7 -2 0.6 -1.8 2.3 -2.1 3.3 -1.1 2.9 0.9 -0.4 2.2 -1.9 3.1 -3.5z m6.6 0.1 c1.8 -1.1 2.9 -2 2.5 -2 -1.1 0 -6.7 2.9 -6.7 3.5 0 0.9 0.9 0.5 4.2 -1.5z"/>
  <path d="M185.3 256 c-2.1 -0.8 -2.3 -1.6 -2.3 -8 0 -4 0.4 -7 1 -7 0.6 0 1 2.8 1 6.4 0 6 0.2 6.4 2.5 7 1.4 0.4 2.3 1.1 2 1.6 -0.7 1.2 -1.3 1.2 -4.2 0z"/>
  <path d="M164.4 252.8 c0.3 -1.3 0.6 -4.8 0.7 -7.8 0.1 -3 0.4 -4.4 0.6 -3 0.6 3.5 1.8 4.4 4.7 3.6 2 -0.5 2.6 -1.3 2.7 -3.4 l0.1 -2.7 0.9 3 c1 3.5 0.8 12.5 -0.3 12.5 -0.4 0 -0.8 -1 -0.8 -2.2 0 -3.2 -1.1 -4.5 -4 -4.9 -2.2 -0.4 -2.5 0 -2.8 3.4 -0.2 2 -0.8 3.7 -1.4 3.7 -0.6 0 -0.8 -1 -0.4 -2.2z"/>
  <path d="M177.8 248.8 c-0.3 -3.5 -0.2 -7 0.3 -7.8 0.5 -0.9 0.9 1.6 0.9 6.3 0 4.2 -0.2 7.7 -0.4 7.7 -0.2 0 -0.6 -2.8 -0.8 -6.2z"/>
  <path d="M212 248 c0 -1.1 0.5 -2 1 -2 0.6 0 1 0.9 1 2 0 1.1 -0.4 2 -1 2 -0.5 0 -1 -0.9 -1 -2z"/>
  <path d="M244.6 283.3 c3.6 -6.3 4.7 -7.5 3.5 -3.8 -0.5 1.7 -1.2 4.2 -1.5 5.8 -0.5 1.8 -1.3 2.7 -2.7 2.7 -1.9 0 -1.9 -0.2 0.7 -4.7z"/>
  <path d="M219 282.3 c0 -1 0.5 -2.5 1 -3.3 0.7 -1.1 1 -0.7 1 1.8 0 1.7 -0.4 3.2 -1 3.2 -0.5 0 -1 -0.8 -1 -1.7z"/>
  <path d="M214.7 264 c0.3 -1.1 1.2 -2 1.9 -2 1.7 0 1.8 1.2 0.2 2.8 -1.8 1.8 -2.7 1.5 -2.1 -0.8z"/>
  <path d="M103 193.5 c0 -0.6 0.9 -3.5 2 -6.5 1 -3 1.9 -4.5 2 -3.4 0 1.2 -0.9 4.1 -2 6.5 -1.1 2.4 -2 3.9 -2 3.4z"/>
  <path d="M195 188.5 c0 -0.8 0.4 -1.5 0.9 -1.5 0.5 0 1.4 0.7 2.1 1.5 1 1.3 0.9 1.5 -0.9 1.5 -1.2 0 -2.1 -0.6 -2.1 -1.5z"/>
  <path d="M64.6 179.1 c-0.4 -0.5 0.3 -1.5 1.5 -2.1 2.8 -1.5 3.4 -0.7 1 1.4 -1.2 1.1 -2.1 1.3 -2.5 0.7z"/>
  <path d="M200 176.5 c0 -0.8 0.5 -1.5 1 -1.5 0.6 0 1 0.7 1 1.5 0 0.8 -0.4 1.5 -1 1.5 -0.5 0 -1 -0.7 -1 -1.5z"/>
  <path d="M139.5 96 c-1.9 -0.8 -1.8 -0.9 0.4 -0.9 3.7 -0.1 1.7 -1.3 -2.6 -1.6 -5.6 -0.4 -5.6 -0.4 -4.9 -2 0.4 -1.2 0.2 -1.3 -1.4 -0.2 -1.1 0.6 -1.6 1.3 -1 1.5 2.2 0.8 0.8 2.2 -2 2.2 -2.3 0 -3 -0.4 -3 -2 0 -1.2 0.5 -1.7 1.4 -1.4 0.9 0.3 1.3 -0.1 1.3 -1.3 -0.2 -1.5 0.8 -1.9 5.3 -2.3 4.4 -0.4 5 -0.6 3 -1.2 -1.4 -0.4 -3.9 -0.8 -5.6 -0.8 -1.7 0 -3.7 -0.6 -4.3 -1.4 -1.7 -2 3.2 -5.6 7.6 -5.6 4.1 0 17 4.9 17.7 6.7 0.9 2.3 -1.7 6.5 -4.9 7.9 -1.6 0.7 -2.4 1.3 -1.7 1.4 0.6 0 1.2 0.5 1.2 1 0 1.2 -3.7 1.2 -6.5 0z"/>
  <path d="M159 84 c0 -2.2 3.9 -3.7 6.7 -2.5 1.5 0.6 1.6 0.8 0.3 1.3 -0.8 0.2 -2.7 1.1 -4.2 1.9 -2.6 1.2 -2.8 1.2 -2.8 -0.7z"/>
  <path d="M150.3 83.4 c-4.9 -2.1 -5.4 -3.8 -0.8 -3.1 4.3 0.7 4.8 1 4.3 3 -0.2 1.2 -0.8 1.2 -3.5 0.1z"/>
  <path d="M183.4 22.5 c-1 -0.8 -1.4 -1.5 -0.8 -1.5 0.5 0 1.9 0.7 3 1.5 1 0.8 1.4 1.5 0.8 1.5 -0.5 0 -1.9 -0.7 -3 -1.5z"/>
 </g>
 <g fill="#ffffff">
  <path d="M209 283.8 c-0.5 -2.4 -2.3 -7 -3.9 -10.3 -2.2 -4.5 -3.2 -8 -3.6 -14 -0.6 -7.1 -2.6 -20.6 -5.4 -35 -1.5 -7.9 -7.8 -32.6 -9.5 -37.4 -2 -5.4 -2 -6.7 -0.2 -5.2 0.8 0.7 2 3.5 2.6 6.4 0.7 2.9 2.3 8.8 3.5 13.2 1.3 4.4 3.5 14.1 5 21.5 3.6 18.1 7.2 33.4 9 37.6 1.5 3.6 6.5 23.6 6.5 26 0 0.8 -0.7 1.4 -1.5 1.4 -0.9 0 -1.8 -1.7 -2.5 -4.2z"/>
  <path d="M135 260.2 c0 -2.8 0.5 -5.4 1 -5.7 0.6 -0.3 1 -3.7 1 -7.5 0 -5.4 -0.4 -7.1 -1.7 -7.8 -1.5 -0.9 -4.7 -9.1 -3.9 -10 0.2 -0.2 6.1 -0.4 13.2 -0.5 l12.8 -0.2 -0.3 8.7 c-0.3 10.8 -1.7 25.7 -2.3 26.3 -0.3 0.3 -4.8 0.8 -10.2 1.2 l-9.6 0.6 0 -5.1z m9 -9.6 c0 -1.1 1 -3.9 2.1 -6.3 1.2 -2.4 1.9 -4.7 1.5 -5 -0.3 -0.3 -1.3 1 -2.1 3 -0.8 2.1 -1.7 3.7 -2 3.7 -0.2 0 -1.3 -1.7 -2.4 -3.7 -1.4 -2.7 -2 -3.2 -2 -1.8 0 1.1 0.6 3.1 1.4 4.5 0.8 1.4 1.5 4.3 1.5 6.5 0 3 0.3 3.6 1 2.5 0.5 -0.8 1 -2.4 1 -3.4z"/>
  <path d="M126.7 241.4 c-1 -1 1.2 -4.4 2.9 -4.4 1 0 1.4 0.8 1.2 2.2 -0.3 2.2 -2.7 3.5 -4.1 2.2z"/>
  <path d="M206.8 232.5 c-0.7 -0.7 1.4 -5.5 2.5 -5.5 0.4 0 0.7 0.6 0.7 1.3 0 1.8 -2.4 5 -3.2 4.2z"/>
  <path d="M191 222.9 c0 -1.8 0.2 -1.9 1.5 -0.9 0.8 0.7 1.5 1.6 1.5 2.1 0 0.5 -0.7 0.9 -1.5 0.9 -0.9 0 -1.5 -0.9 -1.5 -2.1z"/>
  <path d="M124.9 221.4 c-1.8 -2 -16.1 -14.2 -18.8 -16.1 -0.2 -0.1 1 -1.8 2.8 -3.8 1.7 -2 3.1 -4.7 3.2 -6.3 0 -1.5 0.4 -3.6 0.9 -4.7 0.7 -1.7 0.9 -1.5 0.9 1.2 0.1 2.4 0.5 3.1 1.6 2.7 1.5 -0.6 1.6 -0.5 3.2 6.2 0.9 4 0.9 4.2 -1.3 3.9 -1.3 -0.1 -3 -0.8 -3.9 -1.5 -1.2 -1 -1.5 -1 -1.5 0.4 0 0.9 0.5 1.6 1 1.6 0.6 0 1.6 1.2 2.2 2.8 0.7 1.5 3.9 5.7 7.1 9.5 5.7 6.5 7.5 9.4 2.6 4.1z"/>
  <path d="M205.3 217.8 c-1.1 -1.8 -7.1 -18.3 -8.9 -24.7 -1.7 -6 -1.3 -7.2 1.6 -4.6 1.2 1 2.8 2 3.8 2.1 0.9 0.1 3.2 0.3 5.1 0.5 3.8 0.4 5.5 3.3 4.9 8.7 -0.2 1.7 -0.1 3.2 0.2 3.2 0.3 0 0.6 2.7 0.6 6 0.1 6.2 -1 7.7 -2.6 3.8 -0.8 -2.2 -0.9 -2.2 -0.9 0.4 -0.2 5.1 -2 7.3 -3.8 4.6z"/>
  <path d="M94.4 188.5 c0.6 -3 0.4 -3.5 -1.2 -3.5 -2.4 0 -3.1 -1.7 -2.5 -5.6 0.4 -2.8 0.4 -2.8 -1.1 -1 -0.9 1.1 -1.6 2.5 -1.7 3 -0.1 1.6 -2.7 -5.6 -2.8 -7.6 -0.1 -2.5 1.6 -2.2 5.1 0.7 1.6 1.4 3.6 2.5 4.3 2.5 0.7 0 1.5 0.6 1.8 1.3 0.6 1.6 2.2 0 3.2 -3.1 0.6 -2.1 0.4 -2.3 -1.3 -1.8 -1.2 0.4 -2.6 0 -3.6 -1 -0.9 -0.9 -2.3 -1.3 -3.2 -1 -0.8 0.3 -2.3 0.1 -3.3 -0.6 -1.6 -1 -1.7 -1.4 -0.4 -3.8 0.7 -1.6 2 -3.3 2.8 -4 0.8 -0.7 1.5 -1.9 1.5 -2.6 0 -0.8 0.5 -1.4 1 -1.4 0.6 0 1 -0.7 1 -1.5 0 -0.9 1 -1.9 2.3 -2.4 1.2 -0.5 3.8 -2.1 5.7 -3.5 1.9 -1.5 3.6 -2.2 3.8 -1.6 0.4 1 4.2 -3.1 4.2 -4.5 0 -1 2.3 -3 4.2 -3.8 1.3 -0.4 1.1 0.5 -1.1 4.1 -1.6 2.6 -3.8 6.3 -4.9 8.2 -1.1 1.9 -2.8 6.9 -3.6 11 -2.7 13.1 -12.4 35.6 -10.2 23.5z m6.2 -24.5 c2 0.8 2.4 0.6 2.4 -0.9 0 -2.2 -3.8 -3.5 -5.7 -1.9 -0.7 0.6 -1.3 1.8 -1.3 2.6 0 1.2 0.3 1.3 1.1 0.5 0.8 -0.8 2 -0.8 3.5 -0.3z"/>
  <path d="M130.2 180.3 c-11 -6.8 -15.2 -10.2 -15.2 -12.3 0 -2.8 4.1 -2.7 6.6 0.2 1 1.1 3.8 3.3 6.2 4.8 4 2.6 11.2 11 9.4 11 -0.5 0 -3.6 -1.7 -7 -3.7z"/>
  <path d="M118 141.5 c0 -1.4 0.4 -2.5 0.9 -2.5 0.4 0 0.6 1.1 0.3 2.5 -0.2 1.4 -0.6 2.5 -0.8 2.5 -0.2 0 -0.4 -1.1 -0.4 -2.5z"/>
  <path d="M144.9 133 l-2.4 -2 6.5 0.6 c7.4 0.7 8.8 1.3 6.9 2.5 -2.5 1.6 -8.6 1 -11 -1.1z"/>
  <path d="M139 120.3 c-6.6 -2.4 -12.5 -6.1 -16.3 -10.2 -3.9 -4.1 -4.6 -5.6 -5.2 -10.3 -0.9 -7 0.9 -15.7 4 -20 1.3 -1.8 3.1 -4.2 3.9 -5.3 1.2 -1.7 1.3 -2.8 0.5 -5.8 -1.3 -4.7 1.1 -10.4 5 -11.8 1.4 -0.6 5 -2.2 8 -3.6 3 -1.4 7.2 -2.8 9.2 -3 7.1 -1 20.7 3.6 22.9 7.6 0.5 1.1 1 6.5 1 12.1 l0 10.1 -6.4 2.8 c-3.5 1.6 -6.7 3.4 -7.1 4.1 -0.8 1.3 -0.7 22.2 0.1 24.4 0.3 0.7 -0.2 2.1 -1.2 3 -1.4 1.4 -2.8 1.6 -8.5 1 l-6.8 -0.6 0.2 2.7 c0.2 2.9 -0.8 3.7 -3.3 2.8z m13 -26.5 c1.1 -1.8 2 -4.5 2 -6.1 0 -2.4 -0.8 -3.1 -6.7 -5.9 -8.9 -4.2 -15.8 -4.8 -19.6 -1.8 -3.9 3.1 -5.1 6.6 -3.2 9.3 2.1 2.9 10.9 6.5 14.8 5.9 1.8 -0.3 2.6 -0.7 2 -0.9 -0.7 -0.3 -1.3 -0.9 -1.3 -1.4 0 -1.4 2.8 -1.1 3.7 0.4 0.8 1.4 4.2 3.6 5.6 3.7 0.4 0 1.6 -1.5 2.7 -3.2z"/>
  <path d="M133.1 93.1 c-0.8 -0.5 -1 -1.4 -0.6 -2.1 0.6 -0.9 1 -0.8 1.7 0.4 1.2 2.1 0.7 2.8 -1.1 1.7z"/>
  <path d="M166.4 114.5 c-0.7 -1.9 -1.4 -6.5 -1.4 -10.2 0 -5.6 0.4 -7.2 2 -8.6 2.4 -2 3 -2.1 3 -0.4 0 2 4.1 5.4 7.3 6.2 3.8 1 4.1 1.9 2.5 7.2 -1 3.5 -2.2 5.2 -5 6.9 -5.1 3.2 -6.6 3 -8.4 -1.1z"/>
  <path d="M111.2 103.6 c-0.6 -1.3 -1.6 -4.3 -2.2 -6.7 -0.9 -3.3 -0.9 -4.4 0.2 -5 1 -0.6 1.6 0.6 2.4 4.9 0.6 3.1 1.4 6.5 1.9 7.5 1.1 2.7 -1 2 -2.3 -0.7z"/>
  <path d="M136.3 21.4 c2.1 -4.1 4.3 -5.8 6.4 -4.9 1.7 0.7 1.7 0.8 -0.1 1.8 -1 0.7 -3.2 2.3 -4.9 3.6 l-3 2.5 1.6 -3z"/>
 </g>
</svg>